# xmcd CD database file
#
# Track frame offsets:
#	150
#	14390
#	29320
#	47980
#	60970
#	68085
#	80715
#	92340
#	107747
#	124340
#
# Disc length: 1891 seconds
#
# Revision: 0
# Processed by: cddbd v1.5.1PL2 Copyright (c) Steve Scherf et al.
# Submitted via: CDex 1.60beta1
#
DISCID=7c07610a
DTITLE=Larry Gatlin and The Gatlin Brothers Band - A Gatlin family Christmas
DYEAR=1982
DGENRE=Country
TTITLE0=Silent Night, Holy Night
TTITLE1=Sweet Baby Jesus
TTITLE2=Medley: Hark! The Herald Angels Sing/What Child Is This/O Come, All Ye Faithful
TTITLE3=Steps
TTITLE4=Alleluia
TTITLE5=Oh Holy Night
TTITLE6=Away In A Manger
TTITLE7=Medley: The First Noel/O Little Town Of Bethlehem/Angels We Have Heard On High
TTITLE8=Messiah/I Know That My Redeemer Liveth
TTITLE9=Messiah/Alleluia Chorus
EXTD=YEAR: 1982
EXTT0=
EXTT1=
EXTT2=
EXTT3=
EXTT4=
EXTT5=
EXTT6=
EXTT7=
EXTT8=
EXTT9=
PLAYORDER=
